# MagicaVoxel @ Ephtracy

# group
o 

# material
mtllib Jimmy.mtl
usemtl palette

# normals
vn -1 0 0
vn 1 0 0
vn 0 0 1
vn 0 0 -1
vn 0 -1 0
vn 0 1 0

# texcoords
vt 0.126953 0.5
vt 0.634766 0.5
vt 0.771484 0.5
vt 0.912109 0.5
vt 0.923828 0.5
vt 0.962891 0.5
vt 0.966797 0.5
vt 0.970703 0.5
vt 0.994141 0.5

# verts
v -0.5 0.4 0
v -0.5 0.4 -0.1
v -0.5 0.5 0
v -0.5 0.5 -0.1
v -0.3 0.6 0.2
v -0.3 0.6 -0.2
v -0.3 0.7 0.2
v -0.3 0.7 -0.2
v -0.3 0.8 0.4
v -0.3 0.8 0.2
v -0.3 0.8 -0.2
v -0.3 0.9 0.4
v -0.3 0.9 0.2
v -0.3 1 0.2
v -0.3 1 -0.2
v -0.2 0 0.1
v -0.2 0 -0.1
v -0.2 0.1 0.1
v -0.2 0.1 0
v -0.2 0.1 -0.1
v -0.2 0.2 0.1
v -0.2 0.2 0
v -0.2 0.2 -0.1
v -0.2 0.3 0.1
v -0.2 0.3 -0.1
v -0.2 0.4 0.1
v -0.2 0.4 0
v -0.2 0.4 -0.1
v -0.2 0.5 0.1
v -0.2 0.5 0
v -0.1 0.5 0
v -0.1 0.5 -0.1
v -0.1 0.6 0
v -0.1 0.6 -0.1
v 0.1 0 0.1
v 0.1 0 -0.1
v 0.1 0.1 0.1
v 0.1 0.1 0
v 0.1 0.1 -0.1
v 0.1 0.2 0
v 0.1 0.2 -0.1
v -0.1 0 0.1
v -0.1 0 -0.1
v -0.1 0.1 0.1
v -0.1 0.1 0
v -0.1 0.1 -0.1
v -0.1 0.2 0
v -0.1 0.2 -0.1
v 0.1 0.5 0
v 0.1 0.5 -0.1
v 0.1 0.6 0
v 0.1 0.6 -0.1
v 0.2 0 0.1
v 0.2 0 -0.1
v 0.2 0.1 0.1
v 0.2 0.1 0
v 0.2 0.1 -0.1
v 0.2 0.2 0.1
v 0.2 0.2 0
v 0.2 0.2 -0.1
v 0.2 0.3 0.1
v 0.2 0.3 -0.1
v 0.2 0.4 0.1
v 0.2 0.4 0
v 0.2 0.4 -0.1
v 0.2 0.5 0.1
v 0.2 0.5 0
v 0.3 0.6 0.2
v 0.3 0.6 -0.2
v 0.3 0.7 0.2
v 0.3 0.7 -0.2
v 0.3 0.8 0.4
v 0.3 0.8 0.2
v 0.3 0.8 -0.2
v 0.3 0.9 0.4
v 0.3 0.9 0.2
v 0.3 1 0.2
v 0.3 1 -0.2
v 0.5 0.4 0
v 0.5 0.4 -0.1
v 0.5 0.5 0
v 0.5 0.5 -0.1
v -0.3 0.8 0.4
v -0.3 0.9 0.4
v 0.3 0.8 0.4
v 0.3 0.9 0.4
v -0.3 0.6 0.2
v -0.3 0.7 0.2
v -0.3 0.8 0.2
v -0.3 0.9 0.2
v -0.3 1 0.2
v -0.2 0.7 0.2
v -0.2 0.8 0.2
v -0.1 0.7 0.2
v -0.1 0.8 0.2
v 0.1 0.7 0.2
v 0.1 0.8 0.2
v 0.2 0.7 0.2
v 0.2 0.8 0.2
v 0.3 0.6 0.2
v 0.3 0.7 0.2
v 0.3 0.8 0.2
v 0.3 0.9 0.2
v 0.3 1 0.2
v -0.2 0 0.1
v -0.2 0.1 0.1
v -0.2 0.2 0.1
v -0.2 0.3 0.1
v -0.2 0.4 0.1
v -0.2 0.5 0.1
v -0.1 0 0.1
v -0.1 0.1 0.1
v 0.1 0 0.1
v 0.1 0.1 0.1
v 0.2 0 0.1
v 0.2 0.1 0.1
v 0.2 0.2 0.1
v 0.2 0.3 0.1
v 0.2 0.4 0.1
v 0.2 0.5 0.1
v -0.5 0.4 0
v -0.5 0.5 0
v -0.4 0.4 0
v -0.4 0.5 0
v -0.3 0.4 0
v -0.3 0.5 0
v -0.2 0.1 0
v -0.2 0.2 0
v -0.2 0.4 0
v -0.2 0.5 0
v -0.1 0.1 0
v -0.1 0.2 0
v -0.1 0.5 0
v -0.1 0.6 0
v 0.1 0.1 0
v 0.1 0.2 0
v 0.1 0.5 0
v 0.1 0.6 0
v 0.2 0.1 0
v 0.2 0.2 0
v 0.2 0.4 0
v 0.2 0.5 0
v 0.3 0.4 0
v 0.3 0.5 0
v 0.4 0.4 0
v 0.4 0.5 0
v 0.5 0.4 0
v 0.5 0.5 0
v -0.5 0.4 -0.1
v -0.5 0.5 -0.1
v -0.4 0.4 -0.1
v -0.4 0.5 -0.1
v -0.3 0.4 -0.1
v -0.3 0.5 -0.1
v -0.2 0 -0.1
v -0.2 0.1 -0.1
v -0.2 0.2 -0.1
v -0.2 0.3 -0.1
v -0.2 0.4 -0.1
v -0.1 0 -0.1
v -0.1 0.1 -0.1
v -0.1 0.2 -0.1
v -0.1 0.5 -0.1
v -0.1 0.6 -0.1
v 0.1 0 -0.1
v 0.1 0.1 -0.1
v 0.1 0.2 -0.1
v 0.1 0.5 -0.1
v 0.1 0.6 -0.1
v 0.2 0 -0.1
v 0.2 0.1 -0.1
v 0.2 0.2 -0.1
v 0.2 0.3 -0.1
v 0.2 0.4 -0.1
v 0.3 0.4 -0.1
v 0.3 0.5 -0.1
v 0.4 0.4 -0.1
v 0.4 0.5 -0.1
v 0.5 0.4 -0.1
v 0.5 0.5 -0.1
v -0.3 0.6 -0.2
v -0.3 0.7 -0.2
v -0.3 0.8 -0.2
v -0.3 1 -0.2
v 0.3 0.6 -0.2
v 0.3 0.7 -0.2
v 0.3 0.8 -0.2
v 0.3 1 -0.2
v -0.2 0 0.1
v -0.1 0 0.1
v 0.1 0 0.1
v 0.2 0 0.1
v -0.2 0 -0.1
v -0.1 0 -0.1
v 0.1 0 -0.1
v 0.2 0 -0.1
v -0.2 0.2 0.1
v 0.2 0.2 0.1
v -0.2 0.2 0
v -0.1 0.2 0
v 0.1 0.2 0
v 0.2 0.2 0
v -0.1 0.2 -0.1
v 0.1 0.2 -0.1
v -0.5 0.4 0
v -0.4 0.4 0
v -0.3 0.4 0
v -0.2 0.4 0
v 0.2 0.4 0
v 0.3 0.4 0
v 0.4 0.4 0
v 0.5 0.4 0
v -0.5 0.4 -0.1
v -0.4 0.4 -0.1
v -0.3 0.4 -0.1
v -0.2 0.4 -0.1
v 0.2 0.4 -0.1
v 0.3 0.4 -0.1
v 0.4 0.4 -0.1
v 0.5 0.4 -0.1
v -0.3 0.6 0.2
v 0.3 0.6 0.2
v -0.1 0.6 0
v 0.1 0.6 0
v -0.1 0.6 -0.1
v 0.1 0.6 -0.1
v -0.3 0.6 -0.2
v 0.3 0.6 -0.2
v -0.3 0.8 0.4
v 0.3 0.8 0.4
v -0.3 0.8 0.2
v -0.2 0.8 0.2
v -0.1 0.8 0.2
v 0.1 0.8 0.2
v 0.2 0.8 0.2
v 0.3 0.8 0.2
v -0.2 0.1 0.1
v -0.1 0.1 0.1
v 0.1 0.1 0.1
v 0.2 0.1 0.1
v -0.2 0.1 0
v -0.1 0.1 0
v 0.1 0.1 0
v 0.2 0.1 0
v -0.2 0.5 0.1
v 0.2 0.5 0.1
v -0.5 0.5 0
v -0.4 0.5 0
v -0.3 0.5 0
v -0.2 0.5 0
v -0.1 0.5 0
v 0.1 0.5 0
v 0.2 0.5 0
v 0.3 0.5 0
v 0.4 0.5 0
v 0.5 0.5 0
v -0.5 0.5 -0.1
v -0.4 0.5 -0.1
v -0.3 0.5 -0.1
v -0.1 0.5 -0.1
v 0.1 0.5 -0.1
v 0.3 0.5 -0.1
v 0.4 0.5 -0.1
v 0.5 0.5 -0.1
v -0.3 0.9 0.4
v 0.3 0.9 0.4
v -0.3 0.9 0.2
v 0.3 0.9 0.2
v -0.3 1 0.2
v 0.3 1 0.2
v -0.3 1 -0.2
v 0.3 1 -0.2

# faces
f 3/1/1 2/1/1 1/1/1
f 4/1/1 2/1/1 3/1/1
f 7/7/1 6/7/1 5/7/1
f 8/7/1 6/7/1 7/7/1
f 10/6/1 8/6/1 7/6/1
f 11/6/1 8/6/1 10/6/1
f 12/3/1 10/3/1 9/3/1
f 12/3/1 11/3/1 10/3/1
f 13/3/1 11/3/1 12/3/1
f 14/3/1 11/3/1 13/3/1
f 15/3/1 11/3/1 14/3/1
f 18/9/1 17/9/1 16/9/1
f 19/9/1 17/9/1 18/9/1
f 20/9/1 17/9/1 19/9/1
f 22/5/1 20/5/1 19/5/1
f 23/5/1 20/5/1 22/5/1
f 24/8/1 22/8/1 21/8/1
f 24/8/1 23/8/1 22/8/1
f 25/8/1 23/8/1 24/8/1
f 26/6/1 25/6/1 24/6/1
f 27/6/1 25/6/1 26/6/1
f 28/6/1 25/6/1 27/6/1
f 29/4/1 27/4/1 26/4/1
f 30/4/1 27/4/1 29/4/1
f 33/6/1 32/6/1 31/6/1
f 34/6/1 32/6/1 33/6/1
f 37/9/1 36/9/1 35/9/1
f 38/9/1 36/9/1 37/9/1
f 39/9/1 36/9/1 38/9/1
f 40/5/1 39/5/1 38/5/1
f 41/5/1 39/5/1 40/5/1
f 42/9/2 43/9/2 44/9/2
f 44/9/2 43/9/2 45/9/2
f 45/9/2 43/9/2 46/9/2
f 45/5/2 46/5/2 47/5/2
f 47/5/2 46/5/2 48/5/2
f 49/6/2 50/6/2 51/6/2
f 51/6/2 50/6/2 52/6/2
f 53/9/2 54/9/2 55/9/2
f 55/9/2 54/9/2 56/9/2
f 56/9/2 54/9/2 57/9/2
f 56/5/2 57/5/2 59/5/2
f 59/5/2 57/5/2 60/5/2
f 58/8/2 59/8/2 61/8/2
f 59/8/2 60/8/2 61/8/2
f 61/8/2 60/8/2 62/8/2
f 61/6/2 62/6/2 63/6/2
f 63/6/2 62/6/2 64/6/2
f 64/6/2 62/6/2 65/6/2
f 63/4/2 64/4/2 66/4/2
f 66/4/2 64/4/2 67/4/2
f 68/7/2 69/7/2 70/7/2
f 70/7/2 69/7/2 71/7/2
f 70/6/2 71/6/2 73/6/2
f 73/6/2 71/6/2 74/6/2
f 72/3/2 73/3/2 75/3/2
f 73/3/2 74/3/2 75/3/2
f 75/3/2 74/3/2 76/3/2
f 76/3/2 74/3/2 77/3/2
f 77/3/2 74/3/2 78/3/2
f 79/1/2 80/1/2 81/1/2
f 81/1/2 80/1/2 82/1/2
f 85/3/3 84/3/3 83/3/3
f 86/3/3 84/3/3 85/3/3
f 92/7/3 88/7/3 87/7/3
f 92/6/3 89/6/3 88/6/3
f 93/6/3 89/6/3 92/6/3
f 94/7/3 92/7/3 87/7/3
f 94/9/3 93/9/3 92/9/3
f 95/9/3 93/9/3 94/9/3
f 96/7/3 94/7/3 87/7/3
f 96/6/3 95/6/3 94/6/3
f 97/6/3 95/6/3 96/6/3
f 98/7/3 96/7/3 87/7/3
f 98/9/3 97/9/3 96/9/3
f 99/9/3 97/9/3 98/9/3
f 100/7/3 98/7/3 87/7/3
f 101/6/3 99/6/3 98/6/3
f 101/7/3 98/7/3 100/7/3
f 102/6/3 99/6/3 101/6/3
f 103/3/3 91/3/3 90/3/3
f 104/3/3 91/3/3 103/3/3
f 111/9/3 106/9/3 105/9/3
f 112/9/3 106/9/3 111/9/3
f 115/9/3 114/9/3 113/9/3
f 116/9/3 114/9/3 115/9/3
f 117/8/3 108/8/3 107/8/3
f 118/6/3 109/6/3 108/6/3
f 118/8/3 108/8/3 117/8/3
f 119/4/3 110/4/3 109/4/3
f 119/6/3 109/6/3 118/6/3
f 120/4/3 110/4/3 119/4/3
f 123/1/3 122/1/3 121/1/3
f 124/1/3 122/1/3 123/1/3
f 125/7/3 124/7/3 123/7/3
f 126/7/3 124/7/3 125/7/3
f 129/4/3 126/4/3 125/4/3
f 130/4/3 126/4/3 129/4/3
f 131/5/3 128/5/3 127/5/3
f 132/5/3 128/5/3 131/5/3
f 137/6/3 134/6/3 133/6/3
f 138/6/3 134/6/3 137/6/3
f 139/5/3 136/5/3 135/5/3
f 140/5/3 136/5/3 139/5/3
f 143/4/3 142/4/3 141/4/3
f 144/4/3 142/4/3 143/4/3
f 145/7/3 144/7/3 143/7/3
f 146/7/3 144/7/3 145/7/3
f 147/1/3 146/1/3 145/1/3
f 148/1/3 146/1/3 147/1/3
f 149/1/4 150/1/4 151/1/4
f 151/1/4 150/1/4 152/1/4
f 151/7/4 152/7/4 153/7/4
f 153/7/4 152/7/4 154/7/4
f 153/4/4 154/4/4 159/4/4
f 155/9/4 156/9/4 160/9/4
f 156/5/4 157/5/4 161/5/4
f 160/9/4 156/9/4 161/9/4
f 157/8/4 158/8/4 162/8/4
f 161/5/4 157/5/4 162/5/4
f 159/4/4 154/4/4 163/4/4
f 162/8/4 158/8/4 167/8/4
f 159/4/4 163/4/4 168/4/4
f 163/6/4 164/6/4 168/6/4
f 168/6/4 164/6/4 169/6/4
f 165/9/4 166/9/4 170/9/4
f 166/5/4 167/5/4 171/5/4
f 170/9/4 166/9/4 171/9/4
f 167/8/4 158/8/4 172/8/4
f 171/5/4 167/5/4 172/5/4
f 158/6/4 159/6/4 173/6/4
f 172/8/4 158/8/4 173/8/4
f 159/4/4 168/4/4 174/4/4
f 173/6/4 159/6/4 174/6/4
f 174/4/4 168/4/4 175/4/4
f 175/4/4 168/4/4 176/4/4
f 175/7/4 176/7/4 177/7/4
f 177/7/4 176/7/4 178/7/4
f 177/1/4 178/1/4 179/1/4
f 179/1/4 178/1/4 180/1/4
f 181/7/4 182/7/4 185/7/4
f 182/6/4 183/6/4 186/6/4
f 185/7/4 182/7/4 186/7/4
f 183/3/4 184/3/4 187/3/4
f 186/6/4 183/6/4 187/6/4
f 187/3/4 184/3/4 188/3/4
f 193/9/5 190/9/5 189/9/5
f 194/9/5 190/9/5 193/9/5
f 195/9/5 192/9/5 191/9/5
f 196/9/5 192/9/5 195/9/5
f 199/8/5 198/8/5 197/8/5
f 200/8/5 198/8/5 199/8/5
f 201/8/5 198/8/5 200/8/5
f 202/8/5 198/8/5 201/8/5
f 203/8/5 201/8/5 200/8/5
f 204/8/5 201/8/5 203/8/5
f 213/1/5 206/1/5 205/1/5
f 214/7/5 207/7/5 206/7/5
f 214/1/5 206/1/5 213/1/5
f 215/4/5 208/4/5 207/4/5
f 215/7/5 207/7/5 214/7/5
f 216/4/5 208/4/5 215/4/5
f 217/4/5 210/4/5 209/4/5
f 218/7/5 211/7/5 210/7/5
f 218/4/5 210/4/5 217/4/5
f 219/1/5 212/1/5 211/1/5
f 219/7/5 211/7/5 218/7/5
f 220/1/5 212/1/5 219/1/5
f 223/7/5 222/7/5 221/7/5
f 224/7/5 222/7/5 223/7/5
f 225/7/5 223/7/5 221/7/5
f 226/7/5 222/7/5 224/7/5
f 227/7/5 225/7/5 221/7/5
f 227/7/5 226/7/5 225/7/5
f 228/7/5 222/7/5 226/7/5
f 228/7/5 226/7/5 227/7/5
f 231/3/5 230/3/5 229/3/5
f 232/3/5 230/3/5 231/3/5
f 233/3/5 230/3/5 232/3/5
f 234/3/5 230/3/5 233/3/5
f 235/3/5 230/3/5 234/3/5
f 236/3/5 230/3/5 235/3/5
f 237/9/6 238/9/6 241/9/6
f 241/9/6 238/9/6 242/9/6
f 239/9/6 240/9/6 243/9/6
f 243/9/6 240/9/6 244/9/6
f 245/4/6 246/4/6 250/4/6
f 250/4/6 246/4/6 251/4/6
f 251/4/6 246/4/6 252/4/6
f 252/4/6 246/4/6 253/4/6
f 247/1/6 248/1/6 257/1/6
f 248/7/6 249/7/6 258/7/6
f 257/1/6 248/1/6 258/1/6
f 249/4/6 250/4/6 259/4/6
f 258/7/6 249/7/6 259/7/6
f 250/4/6 251/4/6 259/4/6
f 259/4/6 251/4/6 260/4/6
f 253/4/6 254/4/6 261/4/6
f 252/4/6 253/4/6 261/4/6
f 254/7/6 255/7/6 262/7/6
f 261/4/6 254/4/6 262/4/6
f 255/1/6 256/1/6 263/1/6
f 262/7/6 255/7/6 263/7/6
f 263/1/6 256/1/6 264/1/6
f 265/3/6 266/3/6 267/3/6
f 267/3/6 266/3/6 268/3/6
f 269/3/6 270/3/6 271/3/6
f 271/3/6 270/3/6 272/3/6
