# MagicaVoxel @ Ephtracy

# group
o 

# material
mtllib PaperBox.mtl
usemtl palette

# normals
vn -1 0 0
vn 1 0 0
vn 0 0 1
vn 0 0 -1
vn 0 -1 0
vn 0 1 0

# texcoords
vt 0.310547 0.5
vt 0.330078 0.5
vt 0.349609 0.5

# verts
v -0.5 0 0.5
v -0.5 0 0
v -0.5 0 -0.1
v -0.5 0 -0.6
v -0.5 0.1 0.1
v -0.5 0.1 0
v -0.5 0.1 -0.1
v -0.5 0.1 -0.2
v -0.5 0.2 0.1
v -0.5 0.2 0
v -0.5 0.2 -0.1
v -0.5 0.2 -0.2
v -0.5 0.4 0.1
v -0.5 0.4 0
v -0.5 0.4 -0.1
v -0.5 0.4 -0.2
v -0.5 0.5 0.1
v -0.5 0.5 0
v -0.5 0.5 -0.1
v -0.5 0.5 -0.2
v -0.5 0.8 0.1
v -0.5 0.8 0
v -0.5 0.8 -0.1
v -0.5 0.8 -0.2
v -0.5 0.9 0.1
v -0.5 0.9 0
v -0.5 0.9 -0.1
v -0.5 0.9 -0.2
v -0.5 1 0.5
v -0.5 1 0
v -0.5 1 -0.1
v -0.5 1 -0.6
v 0.6 0 0.5
v 0.6 0 0
v 0.6 0 -0.1
v 0.6 0 -0.6
v 0.6 0.1 0.1
v 0.6 0.1 0
v 0.6 0.1 -0.1
v 0.6 0.1 -0.2
v 0.6 0.2 0.1
v 0.6 0.2 0
v 0.6 0.2 -0.1
v 0.6 0.2 -0.2
v 0.6 0.5 0.1
v 0.6 0.5 0
v 0.6 0.5 -0.1
v 0.6 0.5 -0.2
v 0.6 0.6 0.1
v 0.6 0.6 0
v 0.6 0.6 -0.1
v 0.6 0.6 -0.2
v 0.6 0.8 0.1
v 0.6 0.8 0
v 0.6 0.8 -0.1
v 0.6 0.8 -0.2
v 0.6 0.9 0.1
v 0.6 0.9 0
v 0.6 0.9 -0.1
v 0.6 0.9 -0.2
v 0.6 1 0.5
v 0.6 1 0
v 0.6 1 -0.1
v 0.6 1 -0.6
v -0.5 0 0.5
v -0.5 1 0.5
v 0.6 0 0.5
v 0.6 1 0.5
v -0.5 0 -0.6
v -0.5 1 -0.6
v 0.6 0 -0.6
v 0.6 1 -0.6
v -0.5 0 0.5
v 0.6 0 0.5
v -0.4 0 0.1
v -0.3 0 0.1
v 0 0 0.1
v 0.1 0 0.1
v 0.4 0 0.1
v 0.5 0 0.1
v -0.5 0 0
v -0.4 0 0
v -0.3 0 0
v 0 0 0
v 0.1 0 0
v 0.4 0 0
v 0.5 0 0
v 0.6 0 0
v -0.5 0 -0.1
v -0.4 0 -0.1
v -0.3 0 -0.1
v 0 0 -0.1
v 0.1 0 -0.1
v 0.4 0 -0.1
v 0.5 0 -0.1
v 0.6 0 -0.1
v -0.4 0 -0.2
v -0.3 0 -0.2
v 0 0 -0.2
v 0.1 0 -0.2
v 0.4 0 -0.2
v 0.5 0 -0.2
v -0.5 0 -0.6
v 0.6 0 -0.6
v -0.5 1 0.5
v 0.6 1 0.5
v -0.4 1 0.1
v -0.3 1 0.1
v 0 1 0.1
v 0.1 1 0.1
v 0.4 1 0.1
v 0.5 1 0.1
v -0.5 1 0
v -0.4 1 0
v -0.3 1 0
v 0 1 0
v 0.1 1 0
v 0.4 1 0
v 0.5 1 0
v 0.6 1 0
v -0.5 1 -0.1
v -0.4 1 -0.1
v -0.3 1 -0.1
v 0 1 -0.1
v 0.1 1 -0.1
v 0.4 1 -0.1
v 0.5 1 -0.1
v 0.6 1 -0.1
v -0.4 1 -0.2
v -0.3 1 -0.2
v 0 1 -0.2
v 0.1 1 -0.2
v 0.4 1 -0.2
v 0.5 1 -0.2
v -0.5 1 -0.6
v 0.6 1 -0.6

# faces
f 5/2/1 2/2/1 1/2/1
f 6/1/1 3/1/1 2/1/1
f 6/2/1 2/2/1 5/2/1
f 7/2/1 4/2/1 3/2/1
f 7/1/1 3/1/1 6/1/1
f 8/2/1 4/2/1 7/2/1
f 9/3/1 6/3/1 5/3/1
f 9/2/1 5/2/1 1/2/1
f 9/3/1 8/3/1 7/3/1
f 9/3/1 7/3/1 6/3/1
f 10/3/1 8/3/1 9/3/1
f 11/3/1 8/3/1 10/3/1
f 12/2/1 4/2/1 8/2/1
f 12/3/1 8/3/1 11/3/1
f 13/2/1 9/2/1 1/2/1
f 13/2/1 10/2/1 9/2/1
f 14/1/1 11/1/1 10/1/1
f 14/2/1 10/2/1 13/2/1
f 15/2/1 12/2/1 11/2/1
f 15/1/1 11/1/1 14/1/1
f 16/2/1 4/2/1 12/2/1
f 16/2/1 12/2/1 15/2/1
f 17/2/1 13/2/1 1/2/1
f 17/3/1 15/3/1 14/3/1
f 17/3/1 16/3/1 15/3/1
f 17/3/1 14/3/1 13/3/1
f 18/3/1 16/3/1 17/3/1
f 19/3/1 16/3/1 18/3/1
f 20/2/1 4/2/1 16/2/1
f 20/3/1 16/3/1 19/3/1
f 21/2/1 17/2/1 1/2/1
f 21/2/1 18/2/1 17/2/1
f 22/1/1 19/1/1 18/1/1
f 22/2/1 18/2/1 21/2/1
f 23/2/1 20/2/1 19/2/1
f 23/1/1 19/1/1 22/1/1
f 24/2/1 4/2/1 20/2/1
f 24/2/1 20/2/1 23/2/1
f 25/2/1 21/2/1 1/2/1
f 25/3/1 23/3/1 22/3/1
f 25/3/1 24/3/1 23/3/1
f 25/3/1 22/3/1 21/3/1
f 26/3/1 24/3/1 25/3/1
f 27/3/1 24/3/1 26/3/1
f 28/2/1 4/2/1 24/2/1
f 28/3/1 24/3/1 27/3/1
f 29/2/1 25/2/1 1/2/1
f 29/2/1 26/2/1 25/2/1
f 30/1/1 27/1/1 26/1/1
f 30/2/1 26/2/1 29/2/1
f 31/2/1 28/2/1 27/2/1
f 31/1/1 27/1/1 30/1/1
f 32/2/1 4/2/1 28/2/1
f 32/2/1 28/2/1 31/2/1
f 33/2/2 34/2/2 37/2/2
f 34/1/2 35/1/2 38/1/2
f 37/2/2 34/2/2 38/2/2
f 35/2/2 36/2/2 39/2/2
f 38/1/2 35/1/2 39/1/2
f 39/2/2 36/2/2 40/2/2
f 37/3/2 38/3/2 41/3/2
f 33/2/2 37/2/2 41/2/2
f 39/3/2 40/3/2 41/3/2
f 38/3/2 39/3/2 41/3/2
f 41/3/2 40/3/2 42/3/2
f 42/3/2 40/3/2 43/3/2
f 40/2/2 36/2/2 44/2/2
f 43/3/2 40/3/2 44/3/2
f 33/2/2 41/2/2 45/2/2
f 41/2/2 42/2/2 45/2/2
f 42/1/2 43/1/2 46/1/2
f 45/2/2 42/2/2 46/2/2
f 43/2/2 44/2/2 47/2/2
f 46/1/2 43/1/2 47/1/2
f 44/2/2 36/2/2 48/2/2
f 47/2/2 44/2/2 48/2/2
f 33/2/2 45/2/2 49/2/2
f 46/3/2 47/3/2 49/3/2
f 47/3/2 48/3/2 49/3/2
f 45/3/2 46/3/2 49/3/2
f 49/3/2 48/3/2 50/3/2
f 50/3/2 48/3/2 51/3/2
f 48/2/2 36/2/2 52/2/2
f 51/3/2 48/3/2 52/3/2
f 33/2/2 49/2/2 53/2/2
f 49/2/2 50/2/2 53/2/2
f 50/1/2 51/1/2 54/1/2
f 53/2/2 50/2/2 54/2/2
f 51/2/2 52/2/2 55/2/2
f 54/1/2 51/1/2 55/1/2
f 52/2/2 36/2/2 56/2/2
f 55/2/2 52/2/2 56/2/2
f 33/2/2 53/2/2 57/2/2
f 54/3/2 55/3/2 57/3/2
f 55/3/2 56/3/2 57/3/2
f 53/3/2 54/3/2 57/3/2
f 57/3/2 56/3/2 58/3/2
f 58/3/2 56/3/2 59/3/2
f 56/2/2 36/2/2 60/2/2
f 59/3/2 56/3/2 60/3/2
f 33/2/2 57/2/2 61/2/2
f 57/2/2 58/2/2 61/2/2
f 58/1/2 59/1/2 62/1/2
f 61/2/2 58/2/2 62/2/2
f 59/2/2 60/2/2 63/2/2
f 62/1/2 59/1/2 63/1/2
f 60/2/2 36/2/2 64/2/2
f 63/2/2 60/2/2 64/2/2
f 67/2/3 66/2/3 65/2/3
f 68/2/3 66/2/3 67/2/3
f 69/2/4 70/2/4 71/2/4
f 71/2/4 70/2/4 72/2/4
f 75/2/5 74/2/5 73/2/5
f 76/2/5 74/2/5 75/2/5
f 77/2/5 74/2/5 76/2/5
f 78/2/5 74/2/5 77/2/5
f 79/2/5 74/2/5 78/2/5
f 80/2/5 74/2/5 79/2/5
f 81/2/5 75/2/5 73/2/5
f 82/3/5 76/3/5 75/3/5
f 82/2/5 75/2/5 81/2/5
f 83/2/5 77/2/5 76/2/5
f 83/3/5 76/3/5 82/3/5
f 84/3/5 78/3/5 77/3/5
f 84/2/5 77/2/5 83/2/5
f 85/2/5 79/2/5 78/2/5
f 85/3/5 78/3/5 84/3/5
f 86/3/5 80/3/5 79/3/5
f 86/2/5 79/2/5 85/2/5
f 87/2/5 74/2/5 80/2/5
f 87/3/5 80/3/5 86/3/5
f 88/2/5 74/2/5 87/2/5
f 89/1/5 82/1/5 81/1/5
f 90/3/5 83/3/5 82/3/5
f 90/1/5 82/1/5 89/1/5
f 91/1/5 84/1/5 83/1/5
f 91/3/5 83/3/5 90/3/5
f 92/3/5 85/3/5 84/3/5
f 92/1/5 84/1/5 91/1/5
f 93/1/5 86/1/5 85/1/5
f 93/3/5 85/3/5 92/3/5
f 94/3/5 87/3/5 86/3/5
f 94/1/5 86/1/5 93/1/5
f 95/1/5 88/1/5 87/1/5
f 95/3/5 87/3/5 94/3/5
f 96/1/5 88/1/5 95/1/5
f 97/2/5 90/2/5 89/2/5
f 97/3/5 91/3/5 90/3/5
f 98/2/5 92/2/5 91/2/5
f 98/3/5 91/3/5 97/3/5
f 99/3/5 93/3/5 92/3/5
f 99/2/5 92/2/5 98/2/5
f 100/2/5 94/2/5 93/2/5
f 100/3/5 93/3/5 99/3/5
f 101/3/5 95/3/5 94/3/5
f 101/2/5 94/2/5 100/2/5
f 102/2/5 96/2/5 95/2/5
f 102/3/5 95/3/5 101/3/5
f 103/2/5 97/2/5 89/2/5
f 103/2/5 101/2/5 100/2/5
f 103/2/5 102/2/5 101/2/5
f 103/2/5 100/2/5 99/2/5
f 103/2/5 99/2/5 98/2/5
f 103/2/5 98/2/5 97/2/5
f 104/2/5 96/2/5 102/2/5
f 104/2/5 102/2/5 103/2/5
f 105/2/6 106/2/6 107/2/6
f 107/2/6 106/2/6 108/2/6
f 108/2/6 106/2/6 109/2/6
f 109/2/6 106/2/6 110/2/6
f 110/2/6 106/2/6 111/2/6
f 111/2/6 106/2/6 112/2/6
f 105/2/6 107/2/6 113/2/6
f 107/3/6 108/3/6 114/3/6
f 113/2/6 107/2/6 114/2/6
f 108/2/6 109/2/6 115/2/6
f 114/3/6 108/3/6 115/3/6
f 109/3/6 110/3/6 116/3/6
f 115/2/6 109/2/6 116/2/6
f 110/2/6 111/2/6 117/2/6
f 116/3/6 110/3/6 117/3/6
f 111/3/6 112/3/6 118/3/6
f 117/2/6 111/2/6 118/2/6
f 112/2/6 106/2/6 119/2/6
f 118/3/6 112/3/6 119/3/6
f 119/2/6 106/2/6 120/2/6
f 113/1/6 114/1/6 121/1/6
f 114/3/6 115/3/6 122/3/6
f 121/1/6 114/1/6 122/1/6
f 115/1/6 116/1/6 123/1/6
f 122/3/6 115/3/6 123/3/6
f 116/3/6 117/3/6 124/3/6
f 123/1/6 116/1/6 124/1/6
f 117/1/6 118/1/6 125/1/6
f 124/3/6 117/3/6 125/3/6
f 118/3/6 119/3/6 126/3/6
f 125/1/6 118/1/6 126/1/6
f 119/1/6 120/1/6 127/1/6
f 126/3/6 119/3/6 127/3/6
f 127/1/6 120/1/6 128/1/6
f 121/2/6 122/2/6 129/2/6
f 122/3/6 123/3/6 129/3/6
f 123/2/6 124/2/6 130/2/6
f 129/3/6 123/3/6 130/3/6
f 124/3/6 125/3/6 131/3/6
f 130/2/6 124/2/6 131/2/6
f 125/2/6 126/2/6 132/2/6
f 131/3/6 125/3/6 132/3/6
f 126/3/6 127/3/6 133/3/6
f 132/2/6 126/2/6 133/2/6
f 127/2/6 128/2/6 134/2/6
f 133/3/6 127/3/6 134/3/6
f 121/2/6 129/2/6 135/2/6
f 132/2/6 133/2/6 135/2/6
f 133/2/6 134/2/6 135/2/6
f 131/2/6 132/2/6 135/2/6
f 130/2/6 131/2/6 135/2/6
f 129/2/6 130/2/6 135/2/6
f 134/2/6 128/2/6 136/2/6
f 135/2/6 134/2/6 136/2/6
