# MagicaVoxel @ Ephtracy

# group
o 

# material
mtllib sKELEThAD.mtl
usemtl palette

# normals
vn -1 0 0
vn 1 0 0
vn 0 0 1
vn 0 0 -1
vn 0 -1 0
vn 0 1 0

# texcoords
vt 0.970703 0.5
vt 0.974609 0.5
vt 0.994141 0.5

# verts
v -0.4 0.2 0.4
v -0.4 0.2 -0.2
v -0.4 0.3 0.3
v -0.4 0.3 -0.1
v -0.4 0.4 -0.2
v -0.4 0.4 -0.4
v -0.4 0.5 -0.1
v -0.4 0.5 -0.3
v -0.4 0.6 0.4
v -0.4 0.6 0.3
v -0.4 0.6 -0.3
v -0.4 0.6 -0.4
v -0.4 0.7 0.4
v -0.4 0.7 0.3
v -0.4 0.7 -0.3
v -0.4 0.7 -0.4
v -0.4 0.8 0.3
v -0.4 0.8 -0.3
v -0.3 0 0.2
v -0.3 0 0
v -0.3 0.2 0.2
v -0.3 0.2 0
v -0.3 0.7 0.4
v -0.3 0.7 0.3
v -0.3 0.7 -0.3
v -0.3 0.7 -0.4
v -0.3 0.8 0.4
v -0.3 0.8 0.3
v -0.3 0.8 -0.3
v -0.3 0.8 -0.4
v -0.2 0 0.4
v -0.2 0 0.2
v -0.2 0.2 0.4
v -0.2 0.2 0.2
v -0.1 0.3 0.4
v -0.1 0.3 0.3
v -0.1 0.4 0.4
v -0.1 0.4 0.3
v -0.1 0.5 0.4
v -0.1 0.5 0.3
v 0 0 0.4
v 0 0 0.3
v 0 0.1 0.4
v 0 0.1 0.3
v 0.3 0.3 0.4
v 0.3 0.3 0.3
v 0.3 0.5 0.4
v 0.3 0.5 0.3
v -0.3 0.3 0.4
v -0.3 0.3 0.3
v -0.3 0.5 0.4
v -0.3 0.5 0.3
v -0.1 0 0.4
v -0.1 0 0.3
v -0.1 0.1 0.4
v -0.1 0.1 0.3
v 0.1 0.3 0.4
v 0.1 0.3 0.3
v 0.1 0.4 0.4
v 0.1 0.4 0.3
v 0.1 0.5 0.4
v 0.1 0.5 0.3
v 0.2 0 0.4
v 0.2 0 0.2
v 0.2 0.2 0.4
v 0.2 0.2 0.2
v 0.3 0 0.2
v 0.3 0 0
v 0.3 0.2 0.2
v 0.3 0.2 0
v 0.3 0.7 0.4
v 0.3 0.7 0.3
v 0.3 0.7 -0.3
v 0.3 0.7 -0.4
v 0.3 0.8 0.4
v 0.3 0.8 0.3
v 0.3 0.8 -0.3
v 0.3 0.8 -0.4
v 0.4 0.2 0.4
v 0.4 0.2 -0.2
v 0.4 0.3 0.3
v 0.4 0.3 -0.1
v 0.4 0.4 -0.1
v 0.4 0.4 -0.2
v 0.4 0.4 -0.4
v 0.4 0.5 -0.2
v 0.4 0.5 -0.3
v 0.4 0.6 0.4
v 0.4 0.6 0.3
v 0.4 0.6 -0.3
v 0.4 0.6 -0.4
v 0.4 0.7 0.4
v 0.4 0.7 0.3
v 0.4 0.7 -0.3
v 0.4 0.7 -0.4
v 0.4 0.8 0.3
v 0.4 0.8 -0.3
v -0.4 0.2 0.4
v -0.4 0.6 0.4
v -0.4 0.7 0.4
v -0.3 0.3 0.4
v -0.3 0.5 0.4
v -0.3 0.6 0.4
v -0.3 0.7 0.4
v -0.3 0.8 0.4
v -0.2 0 0.4
v -0.2 0.2 0.4
v -0.1 0 0.4
v -0.1 0.1 0.4
v -0.1 0.3 0.4
v -0.1 0.4 0.4
v -0.1 0.5 0.4
v 0 0 0.4
v 0 0.1 0.4
v 0.1 0.3 0.4
v 0.1 0.4 0.4
v 0.1 0.5 0.4
v 0.2 0 0.4
v 0.2 0.2 0.4
v 0.3 0.3 0.4
v 0.3 0.5 0.4
v 0.3 0.6 0.4
v 0.3 0.7 0.4
v 0.3 0.8 0.4
v 0.4 0.2 0.4
v 0.4 0.6 0.4
v 0.4 0.7 0.4
v -0.4 0.7 0.3
v -0.4 0.8 0.3
v -0.3 0.3 0.3
v -0.3 0.5 0.3
v -0.3 0.7 0.3
v -0.3 0.8 0.3
v -0.1 0 0.3
v -0.1 0.1 0.3
v -0.1 0.3 0.3
v -0.1 0.4 0.3
v -0.1 0.5 0.3
v 0 0 0.3
v 0 0.1 0.3
v 0.1 0.3 0.3
v 0.1 0.4 0.3
v 0.1 0.5 0.3
v 0.3 0.3 0.3
v 0.3 0.5 0.3
v 0.3 0.7 0.3
v 0.3 0.8 0.3
v 0.4 0.7 0.3
v 0.4 0.8 0.3
v -0.3 0 0.2
v -0.3 0.2 0.2
v -0.2 0 0.2
v -0.2 0.2 0.2
v 0.2 0 0.2
v 0.2 0.2 0.2
v 0.3 0 0.2
v 0.3 0.2 0.2
v -0.3 0 0
v -0.3 0.2 0
v 0.3 0 0
v 0.3 0.2 0
v -0.4 0.2 -0.2
v -0.4 0.4 -0.2
v 0.4 0.2 -0.2
v 0.4 0.4 -0.2
v -0.4 0.7 -0.3
v -0.4 0.8 -0.3
v -0.3 0.7 -0.3
v -0.3 0.8 -0.3
v 0.3 0.7 -0.3
v 0.3 0.8 -0.3
v 0.4 0.7 -0.3
v 0.4 0.8 -0.3
v -0.4 0.4 -0.4
v -0.4 0.6 -0.4
v -0.4 0.7 -0.4
v -0.3 0.7 -0.4
v -0.3 0.8 -0.4
v 0.3 0.7 -0.4
v 0.3 0.8 -0.4
v 0.4 0.4 -0.4
v 0.4 0.6 -0.4
v 0.4 0.7 -0.4
v -0.2 0 0.4
v -0.1 0 0.4
v 0 0 0.4
v 0.2 0 0.4
v -0.1 0 0.3
v 0 0 0.3
v -0.3 0 0.2
v -0.2 0 0.2
v 0.2 0 0.2
v 0.3 0 0.2
v -0.3 0 0
v 0.3 0 0
v -0.1 0.1 0.4
v 0 0.1 0.4
v -0.1 0.1 0.3
v 0 0.1 0.3
v -0.4 0.2 0.4
v -0.2 0.2 0.4
v 0.2 0.2 0.4
v 0.4 0.2 0.4
v -0.3 0.2 0.2
v -0.2 0.2 0.2
v 0.2 0.2 0.2
v 0.3 0.2 0.2
v -0.3 0.2 0
v 0.3 0.2 0
v -0.4 0.2 -0.2
v 0.4 0.2 -0.2
v -0.4 0.4 -0.2
v 0.4 0.4 -0.2
v -0.4 0.4 -0.4
v 0.4 0.4 -0.4
v -0.3 0.5 0.4
v -0.1 0.5 0.4
v 0.1 0.5 0.4
v 0.3 0.5 0.4
v -0.3 0.5 0.3
v -0.1 0.5 0.3
v 0.1 0.5 0.3
v 0.3 0.5 0.3
v -0.3 0.3 0.4
v -0.1 0.3 0.4
v 0.1 0.3 0.4
v 0.3 0.3 0.4
v -0.3 0.3 0.3
v -0.1 0.3 0.3
v 0.1 0.3 0.3
v 0.3 0.3 0.3
v -0.4 0.7 0.4
v -0.3 0.7 0.4
v 0.3 0.7 0.4
v 0.4 0.7 0.4
v -0.4 0.7 0.3
v -0.3 0.7 0.3
v 0.3 0.7 0.3
v 0.4 0.7 0.3
v -0.4 0.7 -0.3
v -0.3 0.7 -0.3
v 0.3 0.7 -0.3
v 0.4 0.7 -0.3
v -0.4 0.7 -0.4
v -0.3 0.7 -0.4
v 0.3 0.7 -0.4
v 0.4 0.7 -0.4
v -0.3 0.8 0.4
v 0.3 0.8 0.4
v -0.4 0.8 0.3
v -0.3 0.8 0.3
v 0.3 0.8 0.3
v 0.4 0.8 0.3
v -0.4 0.8 -0.3
v -0.3 0.8 -0.3
v 0.3 0.8 -0.3
v 0.4 0.8 -0.3
v -0.3 0.8 -0.4
v 0.3 0.8 -0.4

# faces
f 3/2/1 2/2/1 1/2/1
f 4/2/1 2/2/1 3/2/1
f 5/2/1 2/2/1 4/2/1
f 7/1/1 4/1/1 3/1/1
f 7/2/1 6/2/1 5/2/1
f 7/2/1 5/2/1 4/2/1
f 8/2/1 6/2/1 7/2/1
f 9/2/1 3/2/1 1/2/1
f 10/1/1 7/1/1 3/1/1
f 10/2/1 3/2/1 9/2/1
f 10/1/1 8/1/1 7/1/1
f 11/2/1 6/2/1 8/2/1
f 11/1/1 8/1/1 10/1/1
f 12/2/1 6/2/1 11/2/1
f 13/1/1 10/1/1 9/1/1
f 13/1/1 11/1/1 10/1/1
f 13/1/1 12/1/1 11/1/1
f 14/1/1 12/1/1 13/1/1
f 15/1/1 12/1/1 14/1/1
f 16/1/1 12/1/1 15/1/1
f 17/1/1 15/1/1 14/1/1
f 18/1/1 15/1/1 17/1/1
f 21/2/1 20/2/1 19/2/1
f 22/2/1 20/2/1 21/2/1
f 27/1/1 24/1/1 23/1/1
f 28/1/1 24/1/1 27/1/1
f 29/1/1 26/1/1 25/1/1
f 30/1/1 26/1/1 29/1/1
f 33/2/1 32/2/1 31/2/1
f 34/2/1 32/2/1 33/2/1
f 37/2/1 36/2/1 35/2/1
f 38/2/1 36/2/1 37/2/1
f 39/1/1 38/1/1 37/1/1
f 40/1/1 38/1/1 39/1/1
f 43/2/1 42/2/1 41/2/1
f 44/2/1 42/2/1 43/2/1
f 47/2/1 46/2/1 45/2/1
f 48/2/1 46/2/1 47/2/1
f 49/2/2 50/2/2 51/2/2
f 51/2/2 50/2/2 52/2/2
f 53/2/2 54/2/2 55/2/2
f 55/2/2 54/2/2 56/2/2
f 57/2/2 58/2/2 59/2/2
f 59/2/2 58/2/2 60/2/2
f 59/1/2 60/1/2 61/1/2
f 61/1/2 60/1/2 62/1/2
f 63/2/2 64/2/2 65/2/2
f 65/2/2 64/2/2 66/2/2
f 67/2/2 68/2/2 69/2/2
f 69/2/2 68/2/2 70/2/2
f 71/1/2 72/1/2 75/1/2
f 75/1/2 72/1/2 76/1/2
f 73/1/2 74/1/2 77/1/2
f 77/1/2 74/1/2 78/1/2
f 79/2/2 80/2/2 81/2/2
f 81/2/2 80/2/2 82/2/2
f 81/1/2 82/1/2 83/1/2
f 82/2/2 80/2/2 83/2/2
f 83/2/2 80/2/2 84/2/2
f 83/1/2 84/1/2 86/1/2
f 84/2/2 85/2/2 86/2/2
f 86/2/2 85/2/2 87/2/2
f 79/2/2 81/2/2 88/2/2
f 81/1/2 83/1/2 89/1/2
f 88/2/2 81/2/2 89/2/2
f 83/1/2 86/1/2 89/1/2
f 86/1/2 87/1/2 89/1/2
f 87/2/2 85/2/2 90/2/2
f 89/1/2 87/1/2 90/1/2
f 90/2/2 85/2/2 91/2/2
f 88/1/2 89/1/2 92/1/2
f 89/1/2 90/1/2 92/1/2
f 90/1/2 91/1/2 92/1/2
f 92/1/2 91/1/2 93/1/2
f 93/1/2 91/1/2 94/1/2
f 94/1/2 91/1/2 95/1/2
f 93/1/2 94/1/2 96/1/2
f 96/1/2 94/1/2 97/1/2
f 101/2/3 99/2/3 98/2/3
f 102/2/3 99/2/3 101/2/3
f 103/1/3 100/1/3 99/1/3
f 103/2/3 99/2/3 102/2/3
f 104/1/3 100/1/3 103/1/3
f 107/2/3 101/2/3 98/2/3
f 108/2/3 107/2/3 106/2/3
f 109/2/3 107/2/3 108/2/3
f 110/2/3 101/2/3 107/2/3
f 110/2/3 107/2/3 109/2/3
f 112/1/3 105/1/3 104/1/3
f 112/1/3 104/1/3 103/1/3
f 112/1/3 103/1/3 102/1/3
f 114/2/3 111/2/3 110/2/3
f 114/2/3 110/2/3 109/2/3
f 115/2/3 111/2/3 114/2/3
f 115/2/3 114/2/3 113/2/3
f 116/1/3 112/1/3 111/1/3
f 116/2/3 111/2/3 115/2/3
f 117/1/3 105/1/3 112/1/3
f 117/1/3 112/1/3 116/1/3
f 118/2/3 115/2/3 113/2/3
f 119/2/3 115/2/3 118/2/3
f 120/2/3 115/2/3 119/2/3
f 121/1/3 105/1/3 117/1/3
f 122/1/3 105/1/3 121/1/3
f 123/1/3 105/1/3 122/1/3
f 124/1/3 105/1/3 123/1/3
f 125/2/3 120/2/3 119/2/3
f 125/2/3 121/2/3 120/2/3
f 125/2/3 122/2/3 121/2/3
f 126/1/3 123/1/3 122/1/3
f 126/2/3 122/2/3 125/2/3
f 127/1/3 123/1/3 126/1/3
f 132/1/3 129/1/3 128/1/3
f 133/1/3 129/1/3 132/1/3
f 136/3/3 131/3/3 130/3/3
f 137/3/3 131/3/3 136/3/3
f 138/3/3 131/3/3 137/3/3
f 139/2/3 135/2/3 134/2/3
f 140/2/3 135/2/3 139/2/3
f 144/3/3 142/3/3 141/3/3
f 144/3/3 143/3/3 142/3/3
f 145/3/3 143/3/3 144/3/3
f 148/1/3 147/1/3 146/1/3
f 149/1/3 147/1/3 148/1/3
f 152/2/3 151/2/3 150/2/3
f 153/2/3 151/2/3 152/2/3
f 156/2/3 155/2/3 154/2/3
f 157/2/3 155/2/3 156/2/3
f 158/2/4 159/2/4 160/2/4
f 160/2/4 159/2/4 161/2/4
f 162/2/4 163/2/4 164/2/4
f 164/2/4 163/2/4 165/2/4
f 166/1/4 167/1/4 168/1/4
f 168/1/4 167/1/4 169/1/4
f 170/1/4 171/1/4 172/1/4
f 172/1/4 171/1/4 173/1/4
f 175/1/4 176/1/4 177/1/4
f 175/1/4 177/1/4 179/1/4
f 177/1/4 178/1/4 179/1/4
f 179/1/4 178/1/4 180/1/4
f 174/2/4 175/2/4 181/2/4
f 175/1/4 179/1/4 182/1/4
f 181/2/4 175/2/4 182/2/4
f 182/1/4 179/1/4 183/1/4
f 188/2/5 185/2/5 184/2/5
f 189/2/5 187/2/5 186/2/5
f 191/2/5 188/2/5 184/2/5
f 191/2/5 189/2/5 188/2/5
f 192/2/5 187/2/5 189/2/5
f 192/2/5 189/2/5 191/2/5
f 194/2/5 191/2/5 190/2/5
f 194/2/5 193/2/5 192/2/5
f 194/2/5 192/2/5 191/2/5
f 195/2/5 193/2/5 194/2/5
f 198/2/5 197/2/5 196/2/5
f 199/2/5 197/2/5 198/2/5
f 204/2/5 201/2/5 200/2/5
f 205/2/5 201/2/5 204/2/5
f 206/2/5 203/2/5 202/2/5
f 207/2/5 203/2/5 206/2/5
f 208/2/5 204/2/5 200/2/5
f 209/2/5 203/2/5 207/2/5
f 210/2/5 208/2/5 200/2/5
f 210/2/5 209/2/5 208/2/5
f 211/2/5 203/2/5 209/2/5
f 211/2/5 209/2/5 210/2/5
f 214/2/5 213/2/5 212/2/5
f 215/2/5 213/2/5 214/2/5
f 220/1/5 217/1/5 216/1/5
f 221/1/5 217/1/5 220/1/5
f 222/1/5 219/1/5 218/1/5
f 223/1/5 219/1/5 222/1/5
f 224/2/6 225/2/6 228/2/6
f 228/2/6 225/2/6 229/2/6
f 226/2/6 227/2/6 230/2/6
f 230/2/6 227/2/6 231/2/6
f 232/1/6 233/1/6 236/1/6
f 236/1/6 233/1/6 237/1/6
f 234/1/6 235/1/6 238/1/6
f 238/1/6 235/1/6 239/1/6
f 240/1/6 241/1/6 244/1/6
f 244/1/6 241/1/6 245/1/6
f 242/1/6 243/1/6 246/1/6
f 246/1/6 243/1/6 247/1/6
f 248/1/6 249/1/6 251/1/6
f 251/1/6 249/1/6 252/1/6
f 250/1/6 251/1/6 254/1/6
f 252/1/6 253/1/6 254/1/6
f 251/1/6 252/1/6 254/1/6
f 254/1/6 253/1/6 255/1/6
f 255/1/6 253/1/6 256/1/6
f 256/1/6 253/1/6 257/1/6
f 255/1/6 256/1/6 258/1/6
f 258/1/6 256/1/6 259/1/6
