# MagicaVoxel @ Ephtracy

# group
o 

# material
mtllib Skelet.mtl
usemtl palette

# normals
vn -1 0 0
vn 1 0 0
vn 0 0 1
vn 0 0 -1
vn 0 -1 0
vn 0 1 0

# texcoords
vt 0.0566406 0.5
vt 0.115234 0.5
vt 0.146484 0.5
vt 0.205078 0.5
vt 0.244141 0.5
vt 0.267578 0.5
vt 0.271484 0.5
vt 0.298828 0.5
vt 0.302734 0.5
vt 0.306641 0.5
vt 0.337891 0.5
vt 0.369141 0.5
vt 0.373047 0.5
vt 0.423828 0.5
vt 0.431641 0.5
vt 0.455078 0.5
vt 0.521484 0.5
vt 0.962891 0.5
vt 0.994141 0.5

# verts
v -0.5 0.4 0.1
v -0.5 0.4 0
v -0.5 0.5 0.1
v -0.5 0.5 0
v -0.3 0.7 0.3
v -0.3 0.7 0.2
v -0.3 0.7 0.1
v -0.3 0.7 0
v -0.3 0.8 0.2
v -0.3 0.8 0.1
v -0.3 0.8 0
v -0.3 0.8 -0.1
v -0.3 0.9 0.3
v -0.3 0.9 0.2
v -0.3 0.9 0.1
v -0.3 0.9 0
v -0.3 0.9 -0.1
v -0.3 1 0.2
v -0.3 1 0.1
v -0.3 1 0
v -0.2 0 0.1
v -0.2 0 0
v -0.2 0.1 0.1
v -0.2 0.1 0
v -0.2 0.2 0.1
v -0.2 0.2 0
v -0.2 0.3 0.1
v -0.2 0.3 0
v -0.2 0.4 0.2
v -0.2 0.4 0.1
v -0.2 0.5 0.2
v -0.2 0.5 0.1
v -0.2 0.6 0.3
v -0.2 0.6 0.2
v -0.2 0.6 0.1
v -0.2 0.6 0
v -0.2 0.7 0.3
v -0.2 0.7 0.2
v -0.2 0.7 0.1
v -0.2 0.7 0
v -0.2 0.7 -0.1
v -0.2 0.8 0
v -0.2 0.8 -0.1
v -0.2 0.9 0.3
v -0.2 0.9 0.2
v -0.2 0.9 0
v -0.2 0.9 -0.1
v -0.2 1 0.3
v -0.2 1 0.2
v -0.2 1 0
v -0.2 1 -0.1
v -0.1 0.3 0.2
v -0.1 0.3 0.1
v -0.1 0.3 0
v -0.1 0.4 0.2
v -0.1 0.4 0.1
v -0.1 0.4 0
v -0.1 0.5 0.1
v -0.1 0.5 0
v -0.1 0.6 0.1
v -0.1 0.6 0
v -0.1 0.7 0.3
v -0.1 0.7 0.2
v -0.1 0.9 0.3
v -0.1 0.9 0.2
v 0.1 0 0.1
v 0.1 0 0
v 0.1 0.1 0.1
v 0.1 0.1 0
v 0.1 0.2 0.1
v 0.1 0.2 0
v 0.2 0.7 0.3
v 0.2 0.7 0.2
v 0.2 0.9 0.3
v 0.2 0.9 0.2
v -0.2 0.7 0.3
v -0.2 0.7 0.2
v -0.2 0.9 0.3
v -0.2 0.9 0.2
v -0.1 0 0.1
v -0.1 0 0
v -0.1 0.1 0.1
v -0.1 0.1 0
v -0.1 0.2 0.1
v -0.1 0.2 0
v 0.1 0.3 0.2
v 0.1 0.3 0.1
v 0.1 0.3 0
v 0.1 0.4 0.2
v 0.1 0.4 0.1
v 0.1 0.4 0
v 0.1 0.5 0.1
v 0.1 0.5 0
v 0.1 0.6 0.1
v 0.1 0.6 0
v 0.1 0.7 0.3
v 0.1 0.7 0.2
v 0.1 0.9 0.3
v 0.1 0.9 0.2
v 0.2 0 0.1
v 0.2 0 0
v 0.2 0.1 0.1
v 0.2 0.1 0
v 0.2 0.2 0.1
v 0.2 0.2 0
v 0.2 0.3 0.1
v 0.2 0.3 0
v 0.2 0.4 0.2
v 0.2 0.4 0.1
v 0.2 0.5 0.2
v 0.2 0.5 0.1
v 0.2 0.6 0.3
v 0.2 0.6 0.2
v 0.2 0.6 0.1
v 0.2 0.6 0
v 0.2 0.7 0.3
v 0.2 0.7 0.2
v 0.2 0.7 0.1
v 0.2 0.7 0
v 0.2 0.7 -0.1
v 0.2 0.8 0
v 0.2 0.8 -0.1
v 0.2 0.9 0.3
v 0.2 0.9 0.2
v 0.2 0.9 0
v 0.2 0.9 -0.1
v 0.2 1 0.3
v 0.2 1 0.2
v 0.2 1 0
v 0.2 1 -0.1
v 0.3 0.7 0.3
v 0.3 0.7 0.1
v 0.3 0.7 0
v 0.3 0.8 0.1
v 0.3 0.8 0
v 0.3 0.8 -0.1
v 0.3 0.9 0.3
v 0.3 0.9 0.2
v 0.3 0.9 0
v 0.3 0.9 -0.1
v 0.3 1 0.2
v 0.3 1 0
v 0.5 0.4 0.1
v 0.5 0.4 0
v 0.5 0.5 0.1
v 0.5 0.5 0
v -0.3 0.7 0.3
v -0.3 0.9 0.3
v -0.2 0.6 0.3
v -0.2 0.7 0.3
v -0.2 0.9 0.3
v -0.2 1 0.3
v -0.1 0.7 0.3
v -0.1 0.9 0.3
v -0.1 1 0.3
v 0 0.7 0.3
v 0 0.9 0.3
v 0 1 0.3
v 0.1 0.6 0.3
v 0.1 0.7 0.3
v 0.1 0.9 0.3
v 0.1 1 0.3
v 0.2 0.6 0.3
v 0.2 0.7 0.3
v 0.2 0.9 0.3
v 0.2 1 0.3
v 0.3 0.7 0.3
v 0.3 0.9 0.3
v -0.3 0.9 0.2
v -0.3 1 0.2
v -0.2 0.4 0.2
v -0.2 0.5 0.2
v -0.2 0.7 0.2
v -0.2 0.9 0.2
v -0.2 1 0.2
v -0.1 0.3 0.2
v -0.1 0.4 0.2
v -0.1 0.7 0.2
v -0.1 0.9 0.2
v 0 0.3 0.2
v 0 0.4 0.2
v 0 0.5 0.2
v 0.1 0.3 0.2
v 0.1 0.4 0.2
v 0.1 0.7 0.2
v 0.1 0.9 0.2
v 0.2 0.4 0.2
v 0.2 0.5 0.2
v 0.2 0.7 0.2
v 0.2 0.9 0.2
v 0.2 1 0.2
v 0.3 0.9 0.2
v 0.3 1 0.2
v -0.5 0.4 0.1
v -0.5 0.5 0.1
v -0.3 0.4 0.1
v -0.3 0.5 0.1
v -0.2 0 0.1
v -0.2 0.1 0.1
v -0.2 0.2 0.1
v -0.2 0.3 0.1
v -0.2 0.4 0.1
v -0.2 0.5 0.1
v -0.1 0 0.1
v -0.1 0.1 0.1
v -0.1 0.2 0.1
v -0.1 0.3 0.1
v -0.1 0.5 0.1
v -0.1 0.6 0.1
v 0 0.2 0.1
v 0 0.3 0.1
v 0 0.5 0.1
v 0 0.6 0.1
v 0.1 0 0.1
v 0.1 0.1 0.1
v 0.1 0.2 0.1
v 0.1 0.3 0.1
v 0.1 0.5 0.1
v 0.1 0.6 0.1
v 0.2 0 0.1
v 0.2 0.1 0.1
v 0.2 0.2 0.1
v 0.2 0.3 0.1
v 0.2 0.4 0.1
v 0.2 0.5 0.1
v 0.3 0.4 0.1
v 0.3 0.5 0.1
v 0.5 0.4 0.1
v 0.5 0.5 0.1
v -0.5 0.4 0
v -0.5 0.5 0
v -0.3 0.4 0
v -0.3 0.5 0
v -0.3 0.7 0
v -0.3 0.8 0
v -0.3 0.9 0
v -0.3 1 0
v -0.2 0 0
v -0.2 0.1 0
v -0.2 0.2 0
v -0.2 0.3 0
v -0.2 0.4 0
v -0.2 0.5 0
v -0.2 0.6 0
v -0.2 0.7 0
v -0.2 0.8 0
v -0.2 0.9 0
v -0.2 1 0
v -0.1 0 0
v -0.1 0.1 0
v -0.1 0.2 0
v -0.1 0.3 0
v -0.1 0.4 0
v -0.1 0.5 0
v -0.1 0.6 0
v -0.1 0.7 0
v 0 0.2 0
v 0 0.3 0
v 0 0.4 0
v 0 0.5 0
v 0 0.6 0
v 0 0.7 0
v 0.1 0 0
v 0.1 0.1 0
v 0.1 0.2 0
v 0.1 0.3 0
v 0.1 0.4 0
v 0.1 0.5 0
v 0.1 0.6 0
v 0.1 0.7 0
v 0.2 0 0
v 0.2 0.1 0
v 0.2 0.2 0
v 0.2 0.3 0
v 0.2 0.4 0
v 0.2 0.5 0
v 0.2 0.6 0
v 0.2 0.7 0
v 0.2 0.8 0
v 0.2 0.9 0
v 0.2 1 0
v 0.3 0.4 0
v 0.3 0.5 0
v 0.3 0.7 0
v 0.3 0.8 0
v 0.3 0.9 0
v 0.3 1 0
v 0.5 0.4 0
v 0.5 0.5 0
v -0.3 0.8 -0.1
v -0.3 0.9 -0.1
v -0.2 0.7 -0.1
v -0.2 0.8 -0.1
v -0.2 0.9 -0.1
v -0.2 1 -0.1
v -0.1 0.7 -0.1
v -0.1 0.8 -0.1
v -0.1 0.9 -0.1
v 0 0.9 -0.1
v 0 1 -0.1
v 0.1 0.7 -0.1
v 0.1 0.8 -0.1
v 0.1 0.9 -0.1
v 0.1 1 -0.1
v 0.2 0.7 -0.1
v 0.2 0.8 -0.1
v 0.2 0.9 -0.1
v 0.2 1 -0.1
v 0.3 0.8 -0.1
v 0.3 0.9 -0.1
v -0.2 0 0.1
v -0.1 0 0.1
v 0.1 0 0.1
v 0.2 0 0.1
v -0.2 0 0
v -0.1 0 0
v 0.1 0 0
v 0.2 0 0
v -0.1 0.2 0.1
v 0 0.2 0.1
v 0.1 0.2 0.1
v -0.1 0.2 0
v 0 0.2 0
v 0.1 0.2 0
v -0.1 0.3 0.2
v 0 0.3 0.2
v 0.1 0.3 0.2
v -0.1 0.3 0.1
v 0 0.3 0.1
v 0.1 0.3 0.1
v -0.2 0.4 0.2
v -0.1 0.4 0.2
v 0.1 0.4 0.2
v 0.2 0.4 0.2
v -0.5 0.4 0.1
v -0.3 0.4 0.1
v -0.2 0.4 0.1
v -0.1 0.4 0.1
v 0.1 0.4 0.1
v 0.2 0.4 0.1
v 0.3 0.4 0.1
v 0.5 0.4 0.1
v -0.5 0.4 0
v -0.3 0.4 0
v -0.2 0.4 0
v -0.1 0.4 0
v 0.1 0.4 0
v 0.2 0.4 0
v 0.3 0.4 0
v 0.5 0.4 0
v -0.2 0.6 0.3
v 0.1 0.6 0.3
v 0.2 0.6 0.3
v -0.2 0.6 0.2
v 0.1 0.6 0.2
v 0.2 0.6 0.2
v -0.2 0.6 0.1
v -0.1 0.6 0.1
v 0 0.6 0.1
v 0.1 0.6 0.1
v 0.2 0.6 0.1
v -0.2 0.6 0
v -0.1 0.6 0
v 0.1 0.6 0
v 0.2 0.6 0
v -0.3 0.7 0.3
v -0.2 0.7 0.3
v 0.2 0.7 0.3
v 0.3 0.7 0.3
v -0.3 0.7 0.2
v -0.2 0.7 0.2
v 0.2 0.7 0.2
v -0.3 0.7 0.1
v -0.2 0.7 0.1
v 0.2 0.7 0.1
v 0.3 0.7 0.1
v -0.3 0.7 0
v -0.2 0.7 0
v -0.1 0.7 0
v 0 0.7 0
v 0.1 0.7 0
v 0.2 0.7 0
v 0.3 0.7 0
v -0.2 0.7 -0.1
v -0.1 0.7 -0.1
v 0.1 0.7 -0.1
v 0.2 0.7 -0.1
v -0.3 0.8 0
v -0.2 0.8 0
v 0.2 0.8 0
v 0.3 0.8 0
v -0.3 0.8 -0.1
v -0.2 0.8 -0.1
v 0.2 0.8 -0.1
v 0.3 0.8 -0.1
v -0.2 0.9 0.3
v -0.1 0.9 0.3
v 0.1 0.9 0.3
v 0.2 0.9 0.3
v -0.2 0.9 0.2
v -0.1 0.9 0.2
v 0.1 0.9 0.2
v 0.2 0.9 0.2
v -0.2 0.3 0.1
v -0.1 0.3 0.1
v 0.1 0.3 0.1
v 0.2 0.3 0.1
v -0.2 0.3 0
v -0.1 0.3 0
v 0.1 0.3 0
v 0.2 0.3 0
v -0.2 0.5 0.2
v 0 0.5 0.2
v 0.2 0.5 0.2
v -0.5 0.5 0.1
v -0.3 0.5 0.1
v -0.2 0.5 0.1
v -0.1 0.5 0.1
v 0 0.5 0.1
v 0.1 0.5 0.1
v 0.2 0.5 0.1
v 0.3 0.5 0.1
v 0.5 0.5 0.1
v -0.5 0.5 0
v -0.3 0.5 0
v -0.2 0.5 0
v -0.1 0.5 0
v 0.1 0.5 0
v 0.2 0.5 0
v 0.3 0.5 0
v 0.5 0.5 0
v -0.2 0.7 0.3
v -0.1 0.7 0.3
v 0.1 0.7 0.3
v 0.2 0.7 0.3
v -0.2 0.7 0.2
v -0.1 0.7 0.2
v 0.1 0.7 0.2
v 0.2 0.7 0.2
v -0.3 0.9 0.3
v -0.2 0.9 0.3
v 0.2 0.9 0.3
v 0.3 0.9 0.3
v -0.3 0.9 0.2
v -0.2 0.9 0.2
v 0.2 0.9 0.2
v 0.3 0.9 0.2
v -0.3 0.9 0
v -0.2 0.9 0
v 0.2 0.9 0
v 0.3 0.9 0
v -0.3 0.9 -0.1
v -0.2 0.9 -0.1
v 0.2 0.9 -0.1
v 0.3 0.9 -0.1
v -0.2 1 0.3
v -0.1 1 0.3
v 0 1 0.3
v 0.1 1 0.3
v 0.2 1 0.3
v -0.3 1 0.2
v -0.2 1 0.2
v -0.1 1 0.2
v 0 1 0.2
v 0.1 1 0.2
v 0.2 1 0.2
v 0.3 1 0.2
v -0.3 1 0.1
v -0.2 1 0.1
v -0.1 1 0.1
v 0 1 0.1
v -0.3 1 0
v -0.2 1 0
v 0 1 0
v 0.1 1 0
v 0.2 1 0
v 0.3 1 0
v -0.2 1 -0.1
v 0 1 -0.1
v 0.1 1 -0.1
v 0.2 1 -0.1

# faces
f 3/12/1 2/12/1 1/12/1
f 4/12/1 2/12/1 3/12/1
f 9/14/1 6/14/1 5/14/1
f 9/9/1 7/9/1 6/9/1
f 10/3/1 8/3/1 7/3/1
f 10/9/1 7/9/1 9/9/1
f 11/3/1 8/3/1 10/3/1
f 13/14/1 9/14/1 5/14/1
f 14/11/1 10/11/1 9/11/1
f 14/14/1 9/14/1 13/14/1
f 15/3/1 12/3/1 11/3/1
f 15/11/1 10/11/1 14/11/1
f 15/3/1 11/3/1 10/3/1
f 16/3/1 12/3/1 15/3/1
f 17/3/1 12/3/1 16/3/1
f 18/14/1 15/14/1 14/14/1
f 19/3/1 16/3/1 15/3/1
f 19/14/1 15/14/1 18/14/1
f 20/3/1 16/3/1 19/3/1
f 23/13/1 22/13/1 21/13/1
f 24/13/1 22/13/1 23/13/1
f 25/5/1 24/5/1 23/5/1
f 26/5/1 24/5/1 25/5/1
f 27/10/1 26/10/1 25/10/1
f 28/10/1 26/10/1 27/10/1
f 31/2/1 30/2/1 29/2/1
f 32/2/1 30/2/1 31/2/1
f 37/14/1 34/14/1 33/14/1
f 38/9/1 35/9/1 34/9/1
f 38/14/1 34/14/1 37/14/1
f 39/3/1 36/3/1 35/3/1
f 39/9/1 35/9/1 38/9/1
f 40/3/1 36/3/1 39/3/1
f 42/3/1 41/3/1 40/3/1
f 43/3/1 41/3/1 42/3/1
f 48/14/1 45/14/1 44/14/1
f 49/14/1 45/14/1 48/14/1
f 50/11/1 47/11/1 46/11/1
f 51/11/1 47/11/1 50/11/1
f 55/16/1 53/16/1 52/16/1
f 56/10/1 54/10/1 53/10/1
f 56/16/1 53/16/1 55/16/1
f 57/10/1 54/10/1 56/10/1
f 60/12/1 59/12/1 58/12/1
f 61/12/1 59/12/1 60/12/1
f 64/14/1 63/14/1 62/14/1
f 65/14/1 63/14/1 64/14/1
f 68/5/1 67/5/1 66/5/1
f 69/5/1 67/5/1 68/5/1
f 70/13/1 69/13/1 68/13/1
f 71/13/1 69/13/1 70/13/1
f 74/4/1 73/4/1 72/4/1
f 75/4/1 73/4/1 74/4/1
f 76/14/2 77/14/2 78/14/2
f 78/14/2 77/14/2 79/14/2
f 80/13/2 81/13/2 82/13/2
f 82/13/2 81/13/2 83/13/2
f 82/5/2 83/5/2 84/5/2
f 84/5/2 83/5/2 85/5/2
f 86/12/2 87/12/2 89/12/2
f 87/7/2 88/7/2 90/7/2
f 89/12/2 87/12/2 90/12/2
f 90/7/2 88/7/2 91/7/2
f 92/10/2 93/10/2 94/10/2
f 94/10/2 93/10/2 95/10/2
f 96/8/2 97/8/2 98/8/2
f 98/8/2 97/8/2 99/8/2
f 100/5/2 101/5/2 102/5/2
f 102/5/2 101/5/2 103/5/2
f 102/13/2 103/13/2 104/13/2
f 104/13/2 103/13/2 105/13/2
f 104/10/2 105/10/2 106/10/2
f 106/10/2 105/10/2 107/10/2
f 108/6/2 109/6/2 110/6/2
f 110/6/2 109/6/2 111/6/2
f 112/4/2 113/4/2 116/4/2
f 113/9/2 114/9/2 117/9/2
f 116/4/2 113/4/2 117/4/2
f 114/6/2 115/6/2 118/6/2
f 117/9/2 114/9/2 118/9/2
f 118/6/2 115/6/2 119/6/2
f 119/6/2 120/6/2 121/6/2
f 121/6/2 120/6/2 122/6/2
f 123/4/2 124/4/2 127/4/2
f 127/4/2 124/4/2 128/4/2
f 125/1/2 126/1/2 129/1/2
f 129/1/2 126/1/2 130/1/2
f 131/4/2 132/4/2 134/4/2
f 132/9/2 133/9/2 134/9/2
f 134/9/2 133/9/2 135/9/2
f 131/4/2 134/4/2 137/4/2
f 134/4/2 135/4/2 137/4/2
f 137/4/2 135/4/2 138/4/2
f 135/17/2 136/17/2 139/17/2
f 138/4/2 135/4/2 139/4/2
f 139/17/2 136/17/2 140/17/2
f 138/4/2 139/4/2 141/4/2
f 141/4/2 139/4/2 142/4/2
f 143/13/2 144/13/2 145/13/2
f 145/13/2 144/13/2 146/13/2
f 150/14/3 148/14/3 147/14/3
f 151/14/3 148/14/3 150/14/3
f 153/14/3 150/14/3 149/14/3
f 154/14/3 152/14/3 151/14/3
f 155/14/3 152/14/3 154/14/3
f 156/14/3 153/14/3 149/14/3
f 156/14/3 154/14/3 153/14/3
f 157/8/3 155/8/3 154/8/3
f 157/14/3 154/14/3 156/14/3
f 158/8/3 155/8/3 157/8/3
f 159/14/3 156/14/3 149/14/3
f 160/8/3 157/8/3 156/8/3
f 160/14/3 156/14/3 159/14/3
f 161/1/3 158/1/3 157/1/3
f 161/8/3 157/8/3 160/8/3
f 162/1/3 158/1/3 161/1/3
f 163/4/3 160/4/3 159/4/3
f 164/4/3 160/4/3 163/4/3
f 165/4/3 162/4/3 161/4/3
f 166/4/3 162/4/3 165/4/3
f 167/4/3 165/4/3 164/4/3
f 168/4/3 165/4/3 167/4/3
f 174/14/3 170/14/3 169/14/3
f 175/14/3 170/14/3 174/14/3
f 177/2/3 172/2/3 171/2/3
f 178/19/3 174/19/3 173/19/3
f 179/19/3 174/19/3 178/19/3
f 180/16/3 177/16/3 176/16/3
f 181/2/3 172/2/3 177/2/3
f 181/16/3 177/16/3 180/16/3
f 182/2/3 172/2/3 181/2/3
f 183/12/3 181/12/3 180/12/3
f 184/6/3 182/6/3 181/6/3
f 184/12/3 181/12/3 183/12/3
f 187/6/3 182/6/3 184/6/3
f 188/6/3 182/6/3 187/6/3
f 189/19/3 186/19/3 185/19/3
f 190/19/3 186/19/3 189/19/3
f 192/4/3 191/4/3 190/4/3
f 193/4/3 191/4/3 192/4/3
f 196/12/3 195/12/3 194/12/3
f 197/12/3 195/12/3 196/12/3
f 202/15/3 197/15/3 196/15/3
f 203/15/3 197/15/3 202/15/3
f 204/13/3 199/13/3 198/13/3
f 205/5/3 200/5/3 199/5/3
f 205/13/3 199/13/3 204/13/3
f 206/10/3 201/10/3 200/10/3
f 206/5/3 200/5/3 205/5/3
f 207/10/3 201/10/3 206/10/3
f 210/12/3 207/12/3 206/12/3
f 211/12/3 207/12/3 210/12/3
f 212/12/3 209/12/3 208/12/3
f 213/12/3 209/12/3 212/12/3
f 216/17/3 211/17/3 210/17/3
f 217/17/3 211/17/3 216/17/3
f 218/10/3 213/10/3 212/10/3
f 219/10/3 213/10/3 218/10/3
f 220/5/3 215/5/3 214/5/3
f 221/13/3 216/13/3 215/13/3
f 221/5/3 215/5/3 220/5/3
f 222/10/3 217/10/3 216/10/3
f 222/13/3 216/13/3 221/13/3
f 223/10/3 217/10/3 222/10/3
f 226/6/3 225/6/3 224/6/3
f 227/6/3 225/6/3 226/6/3
f 228/13/3 227/13/3 226/13/3
f 229/13/3 227/13/3 228/13/3
f 230/12/4 231/12/4 232/12/4
f 232/12/4 231/12/4 233/12/4
f 232/15/4 233/15/4 242/15/4
f 242/15/4 233/15/4 243/15/4
f 234/3/4 235/3/4 245/3/4
f 245/3/4 235/3/4 246/3/4
f 236/3/4 237/3/4 247/3/4
f 247/3/4 237/3/4 248/3/4
f 238/13/4 239/13/4 249/13/4
f 239/5/4 240/5/4 250/5/4
f 249/13/4 239/13/4 250/13/4
f 240/10/4 241/10/4 251/10/4
f 250/5/4 240/5/4 251/5/4
f 251/10/4 241/10/4 252/10/4
f 242/12/4 243/12/4 253/12/4
f 253/12/4 243/12/4 254/12/4
f 244/3/4 245/3/4 255/3/4
f 255/3/4 245/3/4 256/3/4
f 251/12/4 252/12/4 257/12/4
f 252/10/4 253/10/4 258/10/4
f 257/12/4 252/12/4 258/12/4
f 253/17/4 254/17/4 259/17/4
f 258/10/4 253/10/4 259/10/4
f 254/12/4 255/12/4 260/12/4
f 259/17/4 254/17/4 260/17/4
f 255/3/4 256/3/4 261/3/4
f 260/12/4 255/12/4 261/12/4
f 261/3/4 256/3/4 262/3/4
f 257/17/4 258/17/4 265/17/4
f 258/7/4 259/7/4 266/7/4
f 265/17/4 258/17/4 266/17/4
f 259/12/4 260/12/4 267/12/4
f 266/7/4 259/7/4 267/7/4
f 260/10/4 261/10/4 268/10/4
f 267/12/4 260/12/4 268/12/4
f 261/6/4 262/6/4 269/6/4
f 268/10/4 261/10/4 269/10/4
f 269/6/4 262/6/4 270/6/4
f 263/5/4 264/5/4 271/5/4
f 264/13/4 265/13/4 272/13/4
f 271/5/4 264/5/4 272/5/4
f 265/10/4 266/10/4 273/10/4
f 272/13/4 265/13/4 273/13/4
f 273/10/4 266/10/4 274/10/4
f 267/17/4 268/17/4 275/17/4
f 275/17/4 268/17/4 276/17/4
f 269/6/4 270/6/4 277/6/4
f 277/6/4 270/6/4 278/6/4
f 275/6/4 276/6/4 282/6/4
f 282/6/4 276/6/4 283/6/4
f 278/9/4 279/9/4 284/9/4
f 284/9/4 279/9/4 285/9/4
f 280/4/4 281/4/4 286/4/4
f 286/4/4 281/4/4 287/4/4
f 282/13/4 283/13/4 288/13/4
f 288/13/4 283/13/4 289/13/4
f 290/3/4 291/3/4 293/3/4
f 293/3/4 291/3/4 294/3/4
f 292/3/4 293/3/4 296/3/4
f 294/11/4 295/11/4 297/11/4
f 296/3/4 293/3/4 297/3/4
f 293/11/4 294/11/4 297/11/4
f 297/11/4 295/11/4 298/11/4
f 296/17/4 297/17/4 299/17/4
f 298/11/4 295/11/4 299/11/4
f 297/17/4 298/17/4 299/17/4
f 299/11/4 295/11/4 300/11/4
f 296/17/4 299/17/4 301/17/4
f 299/17/4 300/17/4 301/17/4
f 301/17/4 300/17/4 302/17/4
f 302/17/4 300/17/4 303/17/4
f 303/17/4 300/17/4 304/17/4
f 301/6/4 302/6/4 305/6/4
f 302/17/4 303/17/4 306/17/4
f 305/6/4 302/6/4 306/6/4
f 303/1/4 304/1/4 307/1/4
f 306/17/4 303/17/4 307/17/4
f 307/1/4 304/1/4 308/1/4
f 306/17/4 307/17/4 309/17/4
f 309/17/4 307/17/4 310/17/4
f 315/13/5 312/13/5 311/13/5
f 316/13/5 312/13/5 315/13/5
f 317/5/5 314/5/5 313/5/5
f 318/5/5 314/5/5 317/5/5
f 322/12/5 320/12/5 319/12/5
f 323/17/5 321/17/5 320/17/5
f 323/12/5 320/12/5 322/12/5
f 324/17/5 321/17/5 323/17/5
f 328/16/5 326/16/5 325/16/5
f 329/12/5 327/12/5 326/12/5
f 329/16/5 326/16/5 328/16/5
f 330/12/5 327/12/5 329/12/5
f 337/2/5 332/2/5 331/2/5
f 338/2/5 332/2/5 337/2/5
f 339/6/5 334/6/5 333/6/5
f 340/6/5 334/6/5 339/6/5
f 343/12/5 336/12/5 335/12/5
f 344/15/5 337/15/5 336/15/5
f 344/12/5 336/12/5 343/12/5
f 345/12/5 338/12/5 337/12/5
f 345/15/5 337/15/5 344/15/5
f 346/12/5 338/12/5 345/12/5
f 347/17/5 340/17/5 339/17/5
f 348/6/5 341/6/5 340/6/5
f 348/17/5 340/17/5 347/17/5
f 349/13/5 342/13/5 341/13/5
f 349/6/5 341/6/5 348/6/5
f 350/13/5 342/13/5 349/13/5
f 354/14/5 352/14/5 351/14/5
f 355/4/5 353/4/5 352/4/5
f 355/14/5 352/14/5 354/14/5
f 356/4/5 353/4/5 355/4/5
f 357/9/5 355/9/5 354/9/5
f 357/9/5 356/9/5 355/9/5
f 358/9/5 356/9/5 357/9/5
f 359/9/5 356/9/5 358/9/5
f 360/9/5 356/9/5 359/9/5
f 361/9/5 356/9/5 360/9/5
f 362/3/5 358/3/5 357/3/5
f 363/3/5 358/3/5 362/3/5
f 364/6/5 361/6/5 360/6/5
f 365/6/5 361/6/5 364/6/5
f 370/14/5 367/14/5 366/14/5
f 371/14/5 367/14/5 370/14/5
f 372/4/5 369/4/5 368/4/5
f 373/9/5 371/9/5 370/9/5
f 374/9/5 371/9/5 373/9/5
f 375/4/5 369/4/5 372/4/5
f 376/4/5 369/4/5 375/4/5
f 377/3/5 374/3/5 373/3/5
f 378/3/5 374/3/5 377/3/5
f 382/9/5 376/9/5 375/9/5
f 383/9/5 376/9/5 382/9/5
f 384/3/5 379/3/5 378/3/5
f 385/17/5 381/17/5 380/17/5
f 385/3/5 379/3/5 384/3/5
f 385/17/5 380/17/5 379/17/5
f 386/6/5 382/6/5 381/6/5
f 386/17/5 381/17/5 385/17/5
f 387/6/5 382/6/5 386/6/5
f 392/3/5 389/3/5 388/3/5
f 393/3/5 389/3/5 392/3/5
f 394/17/5 391/17/5 390/17/5
f 395/17/5 391/17/5 394/17/5
f 400/14/5 397/14/5 396/14/5
f 401/14/5 397/14/5 400/14/5
f 402/4/5 399/4/5 398/4/5
f 403/4/5 399/4/5 402/4/5
f 404/10/6 405/10/6 408/10/6
f 408/10/6 405/10/6 409/10/6
f 406/10/6 407/10/6 410/10/6
f 410/10/6 407/10/6 411/10/6
f 412/2/6 413/2/6 417/2/6
f 417/2/6 413/2/6 418/2/6
f 413/6/6 414/6/6 419/6/6
f 418/2/6 413/2/6 419/2/6
f 419/6/6 414/6/6 420/6/6
f 420/6/6 414/6/6 421/6/6
f 415/12/6 416/12/6 424/12/6
f 416/15/6 417/15/6 425/15/6
f 424/12/6 416/12/6 425/12/6
f 417/12/6 418/12/6 426/12/6
f 425/15/6 417/15/6 426/15/6
f 426/12/6 418/12/6 427/12/6
f 420/17/6 421/17/6 428/17/6
f 421/6/6 422/6/6 429/6/6
f 428/17/6 421/17/6 429/17/6
f 422/13/6 423/13/6 430/13/6
f 429/6/6 422/6/6 430/6/6
f 430/13/6 423/13/6 431/13/6
f 432/14/6 433/14/6 436/14/6
f 436/14/6 433/14/6 437/14/6
f 434/4/6 435/4/6 438/4/6
f 438/4/6 435/4/6 439/4/6
f 440/14/6 441/14/6 444/14/6
f 444/14/6 441/14/6 445/14/6
f 442/4/6 443/4/6 446/4/6
f 446/4/6 443/4/6 447/4/6
f 448/3/6 449/3/6 452/3/6
f 452/3/6 449/3/6 453/3/6
f 450/17/6 451/17/6 454/17/6
f 454/17/6 451/17/6 455/17/6
f 456/14/6 457/14/6 462/14/6
f 457/8/6 458/8/6 463/8/6
f 462/14/6 457/14/6 463/14/6
f 458/1/6 459/1/6 464/1/6
f 463/8/6 458/8/6 464/8/6
f 459/4/6 460/4/6 465/4/6
f 464/1/6 459/1/6 465/1/6
f 465/4/6 460/4/6 466/4/6
f 461/14/6 462/14/6 468/14/6
f 462/11/6 463/11/6 469/11/6
f 468/14/6 462/14/6 469/14/6
f 463/9/6 464/9/6 470/9/6
f 469/11/6 463/11/6 470/11/6
f 464/1/6 465/1/6 471/1/6
f 470/9/6 464/9/6 471/9/6
f 465/1/6 466/1/6 471/1/6
f 468/3/6 469/3/6 472/3/6
f 469/11/6 470/11/6 473/11/6
f 472/3/6 469/3/6 473/3/6
f 470/11/6 471/11/6 473/11/6
f 471/1/6 466/1/6 474/1/6
f 473/11/6 471/11/6 474/11/6
f 474/1/6 466/1/6 475/1/6
f 466/4/6 467/4/6 476/4/6
f 475/1/6 466/1/6 476/1/6
f 476/4/6 467/4/6 477/4/6
f 473/11/6 474/11/6 478/11/6
f 474/17/6 475/17/6 479/17/6
f 478/11/6 474/11/6 479/11/6
f 475/1/6 476/1/6 480/1/6
f 479/17/6 475/17/6 480/17/6
f 480/1/6 476/1/6 481/1/6
